<?xml version="1.0" encoding="UTF-8" standalone="no"?>
<!DOCTYPE svg PUBLIC "-//W3C//DTD SVG 1.1//EN"
 "http://www.w3.org/Graphics/SVG/1.1/DTD/svg11.dtd">
<!-- Generated by graphviz version 10.0.1 (20240210.2158)
 -->
<!-- Pages: 1 -->
<svg width="968pt" height="350pt"
 viewBox="0.00 0.00 967.75 350.25" xmlns="http://www.w3.org/2000/svg" xmlns:xlink="http://www.w3.org/1999/xlink">
<g id="graph0" class="graph" transform="scale(1 1) rotate(0) translate(4 346.25)">
<polygon fill="white" stroke="none" points="-4,4 -4,-346.25 963.75,-346.25 963.75,4 -4,4"/>
<!-- 1737310341008 -->
<g id="node1" class="node">
<title>1737310341008</title>
<polygon fill="none" stroke="black" points="2.25,-270.5 2.25,-341.75 84.25,-341.75 84.25,-270.5 2.25,-270.5"/>
<text text-anchor="middle" x="43.25" y="-324.45" font-family="Times New Roman,serif" font-size="14.00">x2</text>
<polyline fill="none" stroke="black" points="2.25,-318 84.25,-318"/>
<text text-anchor="middle" x="43.25" y="-300.7" font-family="Times New Roman,serif" font-size="14.00">data 0.0000</text>
<polyline fill="none" stroke="black" points="2.25,-294.25 84.25,-294.25"/>
<text text-anchor="middle" x="43.25" y="-276.95" font-family="Times New Roman,serif" font-size="14.00">grad 0.5000</text>
</g>
<!-- 1737305457424* -->
<g id="node6" class="node">
<title>1737305457424*</title>
<ellipse fill="none" stroke="black" cx="149.5" cy="-216.12" rx="27" ry="18"/>
<text text-anchor="middle" x="149.5" y="-210.7" font-family="Times New Roman,serif" font-size="14.00">*</text>
</g>
<!-- 1737310341008&#45;&gt;1737305457424* -->
<g id="edge12" class="edge">
<title>1737310341008&#45;&gt;1737305457424*</title>
<path fill="none" stroke="black" d="M84.56,-271.33C97.8,-259.9 112.11,-247.54 123.83,-237.42"/>
<polygon fill="black" stroke="black" points="125.8,-240.34 131.09,-231.16 121.23,-235.04 125.8,-240.34"/>
</g>
<!-- 1737305568336 -->
<g id="node2" class="node">
<title>1737305568336</title>
<polygon fill="none" stroke="black" points="212.5,-90.5 212.5,-161.75 297.5,-161.75 297.5,-90.5 212.5,-90.5"/>
<text text-anchor="middle" x="255" y="-144.45" font-family="Times New Roman,serif" font-size="14.00">x1 * w1</text>
<polyline fill="none" stroke="black" points="212.5,-138 297.5,-138"/>
<text text-anchor="middle" x="255" y="-120.7" font-family="Times New Roman,serif" font-size="14.00">data &#45;6.0000</text>
<polyline fill="none" stroke="black" points="212.5,-114.25 297.5,-114.25"/>
<text text-anchor="middle" x="255" y="-96.95" font-family="Times New Roman,serif" font-size="14.00">grad 0.5000</text>
</g>
<!-- 1737305457552+ -->
<g id="node15" class="node">
<title>1737305457552+</title>
<ellipse fill="none" stroke="black" cx="360.5" cy="-171.12" rx="27" ry="18"/>
<text text-anchor="middle" x="360.5" y="-165.7" font-family="Times New Roman,serif" font-size="14.00">+</text>
</g>
<!-- 1737305568336&#45;&gt;1737305457552+ -->
<g id="edge6" class="edge">
<title>1737305568336&#45;&gt;1737305457552+</title>
<path fill="none" stroke="black" d="M297.8,-144.3C307.48,-148.51 317.64,-152.92 326.86,-156.93"/>
<polygon fill="black" stroke="black" points="325.21,-160.03 335.77,-160.81 328,-153.61 325.21,-160.03"/>
</g>
<!-- 1737305568336* -->
<g id="node3" class="node">
<title>1737305568336*</title>
<ellipse fill="none" stroke="black" cx="149.5" cy="-126.12" rx="27" ry="18"/>
<text text-anchor="middle" x="149.5" y="-120.7" font-family="Times New Roman,serif" font-size="14.00">*</text>
</g>
<!-- 1737305568336*&#45;&gt;1737305568336 -->
<g id="edge1" class="edge">
<title>1737305568336*&#45;&gt;1737305568336</title>
<path fill="none" stroke="black" d="M176.89,-126.12C184.3,-126.12 192.63,-126.12 201.01,-126.12"/>
<polygon fill="black" stroke="black" points="200.86,-129.63 210.86,-126.13 200.86,-122.63 200.86,-129.63"/>
</g>
<!-- 1737012808912 -->
<g id="node4" class="node">
<title>1737012808912</title>
<polygon fill="none" stroke="black" points="0,-90.5 0,-161.75 86.5,-161.75 86.5,-90.5 0,-90.5"/>
<text text-anchor="middle" x="43.25" y="-144.45" font-family="Times New Roman,serif" font-size="14.00">x1</text>
<polyline fill="none" stroke="black" points="0,-138 86.5,-138"/>
<text text-anchor="middle" x="43.25" y="-120.7" font-family="Times New Roman,serif" font-size="14.00">data 2.0000</text>
<polyline fill="none" stroke="black" points="0,-114.25 86.5,-114.25"/>
<text text-anchor="middle" x="43.25" y="-96.95" font-family="Times New Roman,serif" font-size="14.00">grad &#45;1.5000</text>
</g>
<!-- 1737012808912&#45;&gt;1737305568336* -->
<g id="edge8" class="edge">
<title>1737012808912&#45;&gt;1737305568336*</title>
<path fill="none" stroke="black" d="M86.95,-126.12C94.87,-126.12 103.09,-126.12 110.84,-126.12"/>
<polygon fill="black" stroke="black" points="110.64,-129.63 120.64,-126.13 110.64,-122.63 110.64,-129.63"/>
</g>
<!-- 1737305457424 -->
<g id="node5" class="node">
<title>1737305457424</title>
<polygon fill="none" stroke="black" points="214,-180.5 214,-251.75 296,-251.75 296,-180.5 214,-180.5"/>
<text text-anchor="middle" x="255" y="-234.45" font-family="Times New Roman,serif" font-size="14.00">x2 * w2</text>
<polyline fill="none" stroke="black" points="214,-228 296,-228"/>
<text text-anchor="middle" x="255" y="-210.7" font-family="Times New Roman,serif" font-size="14.00">data 0.0000</text>
<polyline fill="none" stroke="black" points="214,-204.25 296,-204.25"/>
<text text-anchor="middle" x="255" y="-186.95" font-family="Times New Roman,serif" font-size="14.00">grad 0.5000</text>
</g>
<!-- 1737305457424&#45;&gt;1737305457552+ -->
<g id="edge10" class="edge">
<title>1737305457424&#45;&gt;1737305457552+</title>
<path fill="none" stroke="black" d="M296.31,-198.6C306.46,-194.19 317.22,-189.51 326.93,-185.29"/>
<polygon fill="black" stroke="black" points="328.2,-188.55 335.97,-181.35 325.41,-182.13 328.2,-188.55"/>
</g>
<!-- 1737305457424*&#45;&gt;1737305457424 -->
<g id="edge2" class="edge">
<title>1737305457424*&#45;&gt;1737305457424</title>
<path fill="none" stroke="black" d="M176.89,-216.12C184.63,-216.12 193.38,-216.12 202.14,-216.12"/>
<polygon fill="black" stroke="black" points="202.06,-219.63 212.06,-216.13 202.06,-212.63 202.06,-219.63"/>
</g>
<!-- 1737012845328 -->
<g id="node7" class="node">
<title>1737012845328</title>
<polygon fill="none" stroke="black" points="442.62,-45.5 442.62,-116.75 524.62,-116.75 524.62,-45.5 442.62,-45.5"/>
<text text-anchor="middle" x="483.62" y="-99.45" font-family="Times New Roman,serif" font-size="14.00">b</text>
<polyline fill="none" stroke="black" points="442.62,-93 524.62,-93"/>
<text text-anchor="middle" x="483.62" y="-75.7" font-family="Times New Roman,serif" font-size="14.00">data 6.8814</text>
<polyline fill="none" stroke="black" points="442.62,-69.25 524.62,-69.25"/>
<text text-anchor="middle" x="483.62" y="-51.95" font-family="Times New Roman,serif" font-size="14.00">grad 0.5000</text>
</g>
<!-- 1737313628496+ -->
<g id="node9" class="node">
<title>1737313628496+</title>
<ellipse fill="none" stroke="black" cx="606.75" cy="-126.12" rx="27" ry="18"/>
<text text-anchor="middle" x="606.75" y="-120.7" font-family="Times New Roman,serif" font-size="14.00">+</text>
</g>
<!-- 1737012845328&#45;&gt;1737313628496+ -->
<g id="edge13" class="edge">
<title>1737012845328&#45;&gt;1737313628496+</title>
<path fill="none" stroke="black" d="M524.96,-96.11C540.2,-101.77 557.38,-108.16 571.97,-113.57"/>
<polygon fill="black" stroke="black" points="570.53,-116.77 581.12,-116.97 572.96,-110.21 570.53,-116.77"/>
</g>
<!-- 1737313628496 -->
<g id="node8" class="node">
<title>1737313628496</title>
<polygon fill="none" stroke="black" points="669.75,-90.5 669.75,-161.75 751.75,-161.75 751.75,-90.5 669.75,-90.5"/>
<text text-anchor="middle" x="710.75" y="-144.45" font-family="Times New Roman,serif" font-size="14.00">n</text>
<polyline fill="none" stroke="black" points="669.75,-138 751.75,-138"/>
<text text-anchor="middle" x="710.75" y="-120.7" font-family="Times New Roman,serif" font-size="14.00">data 0.8814</text>
<polyline fill="none" stroke="black" points="669.75,-114.25 751.75,-114.25"/>
<text text-anchor="middle" x="710.75" y="-96.95" font-family="Times New Roman,serif" font-size="14.00">grad 0.5000</text>
</g>
<!-- 1737309820752tanh -->
<g id="node11" class="node">
<title>1737309820752tanh</title>
<ellipse fill="none" stroke="black" cx="814.75" cy="-126.12" rx="27" ry="18"/>
<text text-anchor="middle" x="814.75" y="-120.7" font-family="Times New Roman,serif" font-size="14.00">tanh</text>
</g>
<!-- 1737313628496&#45;&gt;1737309820752tanh -->
<g id="edge14" class="edge">
<title>1737313628496&#45;&gt;1737309820752tanh</title>
<path fill="none" stroke="black" d="M752.06,-126.12C759.98,-126.12 768.25,-126.12 776.07,-126.12"/>
<polygon fill="black" stroke="black" points="775.98,-129.63 785.98,-126.13 775.98,-122.63 775.98,-129.63"/>
</g>
<!-- 1737313628496+&#45;&gt;1737313628496 -->
<g id="edge3" class="edge">
<title>1737313628496+&#45;&gt;1737313628496</title>
<path fill="none" stroke="black" d="M634.02,-126.12C641.4,-126.12 649.7,-126.12 658.03,-126.12"/>
<polygon fill="black" stroke="black" points="657.8,-129.63 667.8,-126.13 657.8,-122.63 657.8,-129.63"/>
</g>
<!-- 1737309820752 -->
<g id="node10" class="node">
<title>1737309820752</title>
<polygon fill="none" stroke="black" points="877.75,-90.5 877.75,-161.75 959.75,-161.75 959.75,-90.5 877.75,-90.5"/>
<text text-anchor="middle" x="918.75" y="-144.45" font-family="Times New Roman,serif" font-size="14.00">o</text>
<polyline fill="none" stroke="black" points="877.75,-138 959.75,-138"/>
<text text-anchor="middle" x="918.75" y="-120.7" font-family="Times New Roman,serif" font-size="14.00">data 0.7071</text>
<polyline fill="none" stroke="black" points="877.75,-114.25 959.75,-114.25"/>
<text text-anchor="middle" x="918.75" y="-96.95" font-family="Times New Roman,serif" font-size="14.00">grad 1.0000</text>
</g>
<!-- 1737309820752tanh&#45;&gt;1737309820752 -->
<g id="edge4" class="edge">
<title>1737309820752tanh&#45;&gt;1737309820752</title>
<path fill="none" stroke="black" d="M842.02,-126.12C849.4,-126.12 857.7,-126.12 866.03,-126.12"/>
<polygon fill="black" stroke="black" points="865.8,-129.63 875.8,-126.13 865.8,-122.63 865.8,-129.63"/>
</g>
<!-- 1737012838736 -->
<g id="node12" class="node">
<title>1737012838736</title>
<polygon fill="none" stroke="black" points="2.25,-180.5 2.25,-251.75 84.25,-251.75 84.25,-180.5 2.25,-180.5"/>
<text text-anchor="middle" x="43.25" y="-234.45" font-family="Times New Roman,serif" font-size="14.00">w2</text>
<polyline fill="none" stroke="black" points="2.25,-228 84.25,-228"/>
<text text-anchor="middle" x="43.25" y="-210.7" font-family="Times New Roman,serif" font-size="14.00">data 1.0000</text>
<polyline fill="none" stroke="black" points="2.25,-204.25 84.25,-204.25"/>
<text text-anchor="middle" x="43.25" y="-186.95" font-family="Times New Roman,serif" font-size="14.00">grad 0.0000</text>
</g>
<!-- 1737012838736&#45;&gt;1737305457424* -->
<g id="edge9" class="edge">
<title>1737012838736&#45;&gt;1737305457424*</title>
<path fill="none" stroke="black" d="M84.56,-216.12C93.22,-216.12 102.35,-216.12 110.91,-216.12"/>
<polygon fill="black" stroke="black" points="110.61,-219.63 120.61,-216.13 110.61,-212.63 110.61,-219.63"/>
</g>
<!-- 1737310939984 -->
<g id="node13" class="node">
<title>1737310939984</title>
<polygon fill="none" stroke="black" points="0.75,-0.5 0.75,-71.75 85.75,-71.75 85.75,-0.5 0.75,-0.5"/>
<text text-anchor="middle" x="43.25" y="-54.45" font-family="Times New Roman,serif" font-size="14.00">w1</text>
<polyline fill="none" stroke="black" points="0.75,-48 85.75,-48"/>
<text text-anchor="middle" x="43.25" y="-30.7" font-family="Times New Roman,serif" font-size="14.00">data &#45;3.0000</text>
<polyline fill="none" stroke="black" points="0.75,-24.25 85.75,-24.25"/>
<text text-anchor="middle" x="43.25" y="-6.95" font-family="Times New Roman,serif" font-size="14.00">grad 1.0000</text>
</g>
<!-- 1737310939984&#45;&gt;1737305568336* -->
<g id="edge11" class="edge">
<title>1737310939984&#45;&gt;1737305568336*</title>
<path fill="none" stroke="black" d="M86.05,-72.21C98.84,-83.25 112.48,-95.03 123.75,-104.76"/>
<polygon fill="black" stroke="black" points="121.21,-107.19 131.06,-111.07 125.78,-101.89 121.21,-107.19"/>
</g>
<!-- 1737305457552 -->
<g id="node14" class="node">
<title>1737305457552</title>
<polygon fill="none" stroke="black" points="423.5,-135.5 423.5,-206.75 543.75,-206.75 543.75,-135.5 423.5,-135.5"/>
<text text-anchor="middle" x="483.62" y="-189.45" font-family="Times New Roman,serif" font-size="14.00">x1 * w1 + x2 * w2</text>
<polyline fill="none" stroke="black" points="423.5,-183 543.75,-183"/>
<text text-anchor="middle" x="483.62" y="-165.7" font-family="Times New Roman,serif" font-size="14.00">data &#45;6.0000</text>
<polyline fill="none" stroke="black" points="423.5,-159.25 543.75,-159.25"/>
<text text-anchor="middle" x="483.62" y="-141.95" font-family="Times New Roman,serif" font-size="14.00">grad 0.5000</text>
</g>
<!-- 1737305457552&#45;&gt;1737313628496+ -->
<g id="edge7" class="edge">
<title>1737305457552&#45;&gt;1737313628496+</title>
<path fill="none" stroke="black" d="M544.12,-149.02C553.61,-145.5 563.13,-141.96 571.75,-138.76"/>
<polygon fill="black" stroke="black" points="572.92,-142.06 581.07,-135.29 570.48,-135.49 572.92,-142.06"/>
</g>
<!-- 1737305457552+&#45;&gt;1737305457552 -->
<g id="edge5" class="edge">
<title>1737305457552+&#45;&gt;1737305457552</title>
<path fill="none" stroke="black" d="M387.78,-171.12C395.04,-171.12 403.27,-171.12 411.79,-171.12"/>
<polygon fill="black" stroke="black" points="411.57,-174.63 421.57,-171.13 411.57,-167.63 411.57,-174.63"/>
</g>
</g>
</svg>
